# xmcd
#
# Track frame offsets: 
#        150
#        15907
#        29783
#        46895
#        64472
#        80341
#        97860
#        118074
#        133205
#        147203
#        164314
#        179860
#        196109
#        210169
#        236202
#        250339
#        269477
#        287669
#        302400
#        319907
#
# Disc length: 4599 seconds
#
# Revision: 0
# Processed by: cddbd v1.5.2PL0 Copyright (c) Steve Scherf et al.
# Submitted via: ExactAudioCopyFreeDBPlugin 1.0
#
DISCID=2411f514
DTITLE=Christie - No Turn Unstoned [CD 2)
DYEAR=2012
DGENRE=Pop
TTITLE0=Jeff Christie - Cannery Row
TTITLE1=Jeff Christie - Breakaway
TTITLE2=Jeff Christie - Mailman
TTITLE3=Jeff Christie - From Hero To Zero
TTITLE4=Jeff Christie - It Can't Happen To Me
TTITLE5=Jeff Christie - Part Of My Life
TTITLE6=Jeff Christie - Heaven Knows
TTITLE7=Jeff Christie - Loser
TTITLE8=Jeff Christie - All The Kings Horses
TTITLE9=Jeff Christie - Fool
TTITLE10=Jeff Christie - I Said She Said
TTITLE11=Jeff Christie - Jody
TTITLE12=Jeff Christie - Set Yourself Free
TTITLE13=Jeff Christie - Wild Grows The Heather
TTITLE14=Jeff Christie - Programmed To Receive
TTITLE15=Jeff Christie - Movin' On
TTITLE16=Jeff Christie - Tonight
TTITLE17=Jeff Christie - Anastasia
TTITLE18=Jeff Christie - Life On Earth
TTITLE19=Jeff Christie - American Boys
EXTD=
EXTT0=
EXTT1=
EXTT2=
EXTT3=
EXTT4=
EXTT5=
EXTT6=
EXTT7=
EXTT8=
EXTT9=
EXTT10=
EXTT11=
EXTT12=
EXTT13=
EXTT14=
EXTT15=
EXTT16=
EXTT17=
EXTT18=
EXTT19=
PLAYORDER=
